<?xml version="1.0" standalone="no"?><!DOCTYPE svg PUBLIC "-//W3C//DTD SVG 1.1//EN" "http://www.w3.org/Graphics/SVG/1.1/DTD/svg11.dtd"><svg t="1758771447896" class="icon" viewBox="0 0 1024 1024" version="1.1" xmlns="http://www.w3.org/2000/svg" p-id="6155" xmlns:xlink="http://www.w3.org/1999/xlink" width="64" height="64"><path d="M131 484h763v56H131z" fill="#44D7B6" p-id="6156"></path><path d="M509.41 960l-0.018-0.021-1.644-0.014-0.02 0.015a456.55 456.55 0 0 1-3.062-0.039L512 960a456.993 456.993 0 0 1-12.284-0.165l-2.627-0.078a454.2 454.2 0 0 1-4.796-0.183l-2.483-0.114a452.875 452.875 0 0 1-4.772-0.258l-2.657-0.166c-1.581-0.103-3.16-0.214-4.736-0.334l-2.405-0.188c-1.598-0.13-3.193-0.268-4.786-0.415l-2.502-0.237a449.6 449.6 0 0 1-4.666-0.48l-2.665-0.296a448.67 448.67 0 0 1-4.657-0.557l-2.423-0.309a447.927 447.927 0 0 1-4.639-0.629l-2.647-0.381a447.15 447.15 0 0 1-4.563-0.695l-2.424-0.389c-1.534-0.25-3.066-0.509-4.595-0.775l-2.512-0.444a446.093 446.093 0 0 1-4.53-0.84l-2.551-0.493a445.61 445.61 0 0 1-4.538-0.917l-2.391-0.503c-0.934-0.199-1.865-0.4-2.796-0.605C214.387 905.36 64 726.243 64 512c0-214.243 150.387-393.36 351.356-437.55l1.393-0.303 1.536-0.33a445.49 445.49 0 0 1 4.548-0.943l2.478-0.493c1.519-0.298 3.04-0.588 4.565-0.87l2.482-0.453c1.537-0.276 3.076-0.544 4.618-0.804l2.415-0.4c1.55-0.253 3.104-0.497 4.66-0.734l2.483-0.37c3.76-0.551 7.535-1.055 11.324-1.512l2.98-0.349c1.572-0.178 3.147-0.349 4.724-0.511l2.503-0.251c1.588-0.155 3.178-0.3 4.77-0.439l2.451-0.205c1.576-0.128 3.154-0.248 4.734-0.36l2.68-0.18a452.46 452.46 0 0 1 4.727-0.28l2.511-0.13c1.601-0.077 3.204-0.146 4.81-0.207l2.542-0.09a456.222 456.222 0 0 1 22.042-0.177L512 64a456.984 456.984 0 0 1 12.254 0.164l2.683 0.08c1.596 0.053 3.19 0.113 4.782 0.182l2.469 0.114c1.576 0.077 3.15 0.162 4.722 0.255l2.672 0.166c1.575 0.103 3.146 0.213 4.716 0.332l2.521 0.198c1.591 0.13 3.18 0.268 4.767 0.414l2.448 0.232c1.582 0.154 3.161 0.316 4.738 0.487l2.572 0.286c1.543 0.176 3.083 0.36 4.62 0.552l2.539 0.323c1.539 0.201 3.075 0.41 4.609 0.626l2.577 0.37c1.525 0.225 3.048 0.457 4.568 0.696l2.573 0.413c3.727 0.61 7.438 1.265 11.133 1.965l2.856 0.551c0.78 0.153 1.558 0.308 2.336 0.465l-0.005 0.012 4.632 0.948C808.184 116.941 960 296.741 960 512S808.184 907.058 605.782 950.169l-4.632 0.948 0.005 0.012-1.167 0.234-1.257 0.248c-3.687 0.723-7.39 1.401-11.109 2.033l-3.087 0.514c-1.518 0.247-3.038 0.487-4.56 0.718l-2.564 0.383c-1.532 0.224-3.066 0.44-4.602 0.649l-2.54 0.337a448.4 448.4 0 0 1-4.613 0.575l-2.521 0.294c-1.574 0.179-3.151 0.35-4.73 0.512l-2.44 0.244c-1.585 0.154-3.172 0.3-4.76 0.438l-2.554 0.214a451.33 451.33 0 0 1-4.709 0.357l-2.675 0.18c-1.57 0.102-3.142 0.195-4.716 0.28l-2.446 0.125c-1.59 0.077-3.182 0.146-4.776 0.207l-2.69 0.094c-1.589 0.051-3.18 0.094-4.773 0.129l-2.535 0.047c-1.778 0.029-3.558 0.047-5.341 0.059h-4.58z m0.702-823.987l-1.635 0.015-2.438 2.11C401.84 229.064 336 362.843 336 512c0 150.316 66.866 285.015 172.476 375.974a74.55 74.55 0 0 0 1.63 0.021l-0.822 0.676C617.815 799.165 687 663.662 687 512c0-151.276-68.833-286.476-176.888-375.987z m92.182 10.9l1.498 1.652C690.342 244.901 743 372.301 743 512c0 140.501-53.264 268.562-140.702 365.09C766.343 836.65 888 688.534 888 512S766.343 187.35 602.294 146.912z m-185.4 1.223l-1.022 0.264C254.782 190.876 136 337.566 136 512c0 174.802 119.284 321.744 280.893 363.868C331.666 778.713 280 651.39 280 512s51.666-266.713 136.893-363.864z" fill="#1C6EFF" p-id="6157"></path></svg>